# xmcd CD database file
#
# Track frame offsets:
#	150
#	21878
#	52636
#	71276
#	94282
#
# Disc length: 1805 seconds
#
# Revision: 0
# Processed by: cddbd v1.5.2PL0 Copyright (c) Steve Scherf et al.
# Submitted via: CDex 1.70beta2
#
DISCID=33070b05
DTITLE=Execration - Language of the Dead
DYEAR=2007
DGENRE=Jazz
TTITLE0=Parasite
TTITLE1=Piercing Eyes
TTITLE2=Enslaved in Grime
TTITLE3=Oblivion
TTITLE4=Language of the Dead
EXTD=YEAR: 2007
EXTT0=
EXTT1=
EXTT2=
EXTT3=
EXTT4=
PLAYORDER=
